<?xml version="1.0" standalone="no"?>
<!DOCTYPE svg PUBLIC "-//W3C//DTD SVG 20010904//EN"
 "http://www.w3.org/TR/2001/REC-SVG-20010904/DTD/svg10.dtd">
<svg version="1.0" xmlns="http://www.w3.org/2000/svg"
 width="198.000000pt" height="198.000000pt" viewBox="0 0 198.000000 198.000000"
 preserveAspectRatio="xMidYMid meet">
<metadata>
Created by potrace 1.14, written by Peter Selinger 2001-2017
</metadata>
<g transform="translate(0.000000,198.000000) scale(0.100000,-0.100000)"
fill="#000000" stroke="none">
<path d="M965 1613 c-35 -9 -63 -43 -103 -127 -22 -45 -56 -116 -76 -158 l-37
-78 -98 0 c-85 0 -102 -3 -131 -22 -39 -27 -55 -65 -46 -114 7 -33 44 -70 124
-124 l22 -15 -32 -65 c-18 -36 -33 -67 -33 -70 -1 -3 -21 -45 -44 -95 -79
-164 -91 -194 -91 -219 0 -42 21 -74 62 -95 59 -29 76 -22 258 108 121 87 122
88 162 63 91 -58 88 -58 152 -17 39 24 63 34 77 30 11 -4 75 -45 142 -93 137
-97 177 -115 219 -100 39 14 78 63 78 100 0 17 -12 56 -26 87 -15 31 -51 107
-80 169 -30 62 -54 117 -54 122 0 6 -5 10 -12 10 -6 0 -8 3 -5 6 3 4 0 16 -8
28 -8 11 -15 23 -15 27 0 3 29 28 65 55 45 34 66 58 71 79 10 38 5 78 -10 87
-6 4 -7 8 -3 8 11 0 -12 21 -41 38 -23 13 -142 17 -142 5 1 -5 9 -24 19 -43
14 -26 26 -35 47 -36 51 -3 54 -4 54 -22 0 -15 -78 -82 -95 -82 -3 0 -27 46
-54 103 -130 271 -181 380 -181 386 0 4 -12 19 -27 33 -29 27 -73 40 -108 31z
m69 -126 c44 -99 71 -152 79 -158 5 -3 8 -8 7 -10 -1 -2 3 -17 9 -32 6 -16 11
-30 11 -33 0 -2 -65 -4 -145 -4 -112 0 -145 3 -145 13 0 7 5 18 10 23 6 6 13
21 15 35 3 13 9 25 15 27 5 2 10 7 10 12 0 5 14 38 30 73 17 36 30 70 30 75 0
11 17 20 40 21 8 0 24 -19 34 -42z m149 -326 c4 0 23 -36 43 -78 l36 -78 -23
-15 c-13 -8 -62 -42 -109 -76 -47 -33 -97 -68 -111 -78 l-27 -17 -123 87 c-68
47 -128 90 -132 94 -5 4 1 27 13 50 12 23 19 45 15 48 -3 4 -24 7 -45 7 -31 0
-41 -4 -49 -22 -14 -30 -20 -29 -75 12 -89 69 -76 72 277 69 166 -1 305 -2
310 -3z m-458 -257 c29 -22 233 -162 254 -174 14 -7 31 -1 72 28 30 20 56 39
59 42 15 15 178 120 186 120 5 0 16 -15 23 -32 8 -18 49 -105 92 -193 58 -122
74 -164 67 -178 -7 -13 -15 -16 -31 -11 -12 4 -24 10 -27 13 -4 6 -124 90
-245 173 -22 15 -44 28 -49 28 -4 0 -34 -16 -66 -35 -32 -19 -63 -35 -69 -35
-7 0 -35 16 -64 35 -59 40 -75 42 -103 17 -10 -10 -79 -59 -153 -110 -91 -64
-139 -91 -151 -87 -25 8 -22 19 54 179 36 76 66 145 66 152 0 8 4 14 8 14 5 0
16 16 25 35 19 39 25 42 52 19z"/>
</g>
</svg>
